<svg width="1026" height="1011" viewBox="0 0 1026 1011" fill="none" xmlns="http://www.w3.org/2000/svg">
<path d="M1 2V1010H961.737H1025V12.55L1 2ZM312.689 115.345C312.684 118.174 311.916 120.95 310.466 123.379C309.015 125.808 306.936 127.802 304.448 129.149C301.959 130.496 299.154 131.147 296.326 131.033C293.499 130.92 290.754 130.046 288.382 128.504C273.031 118.719 254.973 114.052 236.803 115.172C192.936 117.714 157.598 153.536 155.583 197.385C154.836 213.213 158.455 228.942 166.044 242.854C173.632 256.765 184.899 268.323 198.613 276.266C212.327 284.209 227.961 288.23 243.805 287.891C259.65 287.552 275.097 282.865 288.459 274.342C290.831 272.812 293.573 271.949 296.394 271.844C299.216 271.739 302.014 272.397 304.493 273.747C306.973 275.098 309.042 277.091 310.485 279.518C311.927 281.945 312.689 284.716 312.689 287.539V482.809C312.689 486.978 311.033 490.977 308.084 493.925C305.136 496.873 301.137 498.529 296.967 498.529H51.7348C49.6661 498.529 47.6177 498.12 45.7071 497.327C43.7965 496.535 42.0611 495.372 40.6006 493.908C39.14 492.443 37.9829 490.704 37.1956 488.792C36.4083 486.879 36.0063 484.83 36.0126 482.761V442.528C36.0154 439.73 36.7648 436.984 38.1833 434.573C39.6018 432.162 41.6382 430.173 44.0822 428.812C46.5262 427.45 49.2893 426.765 52.0864 426.828C54.8835 426.89 57.6132 427.698 59.9939 429.168C73.3954 437.373 88.78 441.772 104.494 441.892C120.209 442.012 135.659 437.849 149.184 429.849C162.709 421.849 173.799 410.316 181.261 396.488C188.723 382.661 192.275 367.061 191.536 351.366C189.541 307.882 154.806 272.242 111.362 269.221C93.3529 267.899 75.3831 272.26 59.9843 281.689C57.6042 283.162 54.8739 283.972 52.0756 284.036C49.2773 284.1 46.5127 283.416 44.0677 282.054C41.6226 280.691 39.5859 278.701 38.168 276.288C36.7502 273.875 36.0028 271.127 36.003 268.329V74.1041C36.003 69.935 37.6595 65.9368 40.608 62.9889C43.5564 60.0409 47.5554 58.3847 51.7252 58.3847H296.967C301.137 58.3847 305.136 60.0409 308.084 62.9889C311.033 65.9368 312.689 69.935 312.689 74.1041V115.345ZM829.524 498.26L605.117 498.481C601.11 498.486 597.253 496.959 594.335 494.213L498.093 403.733C495.182 400.994 491.337 399.468 487.34 399.465H487.282C485.218 399.465 483.174 399.871 481.267 400.661C479.36 401.451 477.628 402.61 476.169 404.069C474.71 405.529 473.552 407.262 472.763 409.169C471.974 411.076 471.569 413.12 471.57 415.184V482.742C471.57 484.809 471.162 486.855 470.37 488.764C469.579 490.673 468.418 492.408 466.955 493.868C465.492 495.328 463.755 496.485 461.844 497.273C459.934 498.061 457.886 498.466 455.819 498.462L345.774 498.26C343.704 498.264 341.653 497.859 339.74 497.068C337.826 496.278 336.088 495.117 334.624 493.653C333.161 492.189 332.001 490.45 331.211 488.536C330.422 486.623 330.018 484.572 330.023 482.502V74.1137C330.023 69.9446 331.679 65.9464 334.628 62.9985C337.576 60.0505 341.575 58.3943 345.745 58.3943H420.72C424.887 58.3966 428.882 60.0523 431.828 62.9979L840.622 471.425C850.522 481.323 843.519 498.251 829.524 498.26ZM984.625 158.743V181.656C984.625 193.405 972.251 200.761 961.747 195.515C949.785 189.556 936.497 186.753 923.147 187.372C881.563 189.214 848.325 223.865 848.114 265.48C848.059 278.893 851.436 292.097 857.924 303.837C864.411 315.577 873.795 325.463 885.181 332.555C896.567 339.648 909.579 343.71 922.978 344.357C936.378 345.004 949.721 342.214 961.737 336.251C964.135 335.033 966.804 334.449 969.49 334.554C972.177 334.659 974.793 335.45 977.087 336.852C979.382 338.254 981.279 340.22 982.598 342.562C983.918 344.905 984.616 347.546 984.625 350.235V482.589C984.625 486.75 982.975 490.741 980.037 493.687C977.099 496.634 973.112 498.295 968.951 498.308L906.513 498.5C904.445 498.508 902.395 498.108 900.482 497.321C898.569 496.534 896.831 495.377 895.367 493.915L483.762 83.8197C473.815 73.9124 480.884 56.9174 494.918 56.9653L968.951 58.5861C973.112 58.5988 977.099 60.2605 980.037 63.2071C982.975 66.1537 984.625 70.1448 984.625 74.3056V158.743ZM308.315 944.024C308.27 948.135 306.616 952.065 303.708 954.971C300.799 957.878 296.868 959.529 292.756 959.571L57.8 959.509C55.7221 959.531 53.6606 959.14 51.7348 958.36C49.809 957.579 48.0572 956.425 46.5807 954.963C45.1042 953.501 43.9324 951.76 43.1331 949.843C42.3339 947.925 41.9231 945.867 41.9245 943.79V535.391C41.9141 531.249 43.5396 527.27 46.4478 524.319C49.356 521.368 53.3116 519.684 57.4547 519.634L296.785 519.466C298.879 519.441 300.956 519.835 302.895 520.625C304.835 521.414 306.597 522.583 308.079 524.062C309.56 525.541 310.731 527.302 311.523 529.24C312.315 531.178 312.711 533.255 312.689 535.348L308.315 944.024ZM408.592 959.562H355.431C353.361 959.562 348.728 959.288 346.33 958.689C344.412 958.209 341.054 956.771 339.615 955.812C338.177 954.853 336.104 953.259 334.819 951.975C333.86 951.016 331.462 948.139 331.211 944.024L332.919 535.626C332.931 531.461 335.223 526.999 338.177 524.062C341.13 521.125 353.002 519.714 357.167 519.725H449.821C451.899 519.724 453.957 520.136 455.874 520.937C457.792 521.737 459.532 522.91 460.993 524.387C462.454 525.864 463.608 527.616 464.387 529.542C465.167 531.468 465.556 533.529 465.534 535.607L464.574 628.638C464.421 642.766 481.534 649.901 491.433 639.86L605.709 524.376C607.171 522.899 608.912 521.727 610.83 520.927C612.748 520.127 614.806 519.715 616.884 519.715H817.579C831.584 519.715 838.596 536.652 828.687 546.569L419.701 954.958C416.753 957.901 412.758 959.553 408.592 959.552V959.562ZM982.598 943.574C982.598 947.738 980.946 951.732 978.004 954.679C975.061 957.626 971.07 959.286 966.905 959.293L856.87 959.495C854.803 959.498 852.755 959.095 850.844 958.306C848.933 957.518 847.197 956.361 845.734 954.901C844.271 953.44 843.11 951.706 842.318 949.797C841.526 947.888 841.119 945.842 841.119 943.775V876.255C841.119 872.086 839.462 868.088 836.514 865.14C833.565 862.192 829.566 860.536 825.397 860.536H825.339C821.336 860.535 817.483 862.062 814.567 864.804L718.325 955.284C715.408 958.032 711.55 959.559 707.543 959.552L483.145 959.331C469.14 959.331 462.138 942.394 472.047 932.477L880.793 524.069C883.74 521.124 887.735 519.468 891.901 519.466H966.876C971.046 519.466 975.045 521.122 977.994 524.07C980.942 527.018 982.598 531.016 982.598 535.185V943.574Z" fill="white" stroke="#1B1464" stroke-width="2" stroke-miterlimit="10"/>
</svg>
